<?xml version="1.0" standalone="no"?>
<!DOCTYPE svg PUBLIC "-//W3C//DTD SVG 20010904//EN"
 "http://www.w3.org/TR/2001/REC-SVG-20010904/DTD/svg10.dtd">
<svg version="1.0" xmlns="http://www.w3.org/2000/svg"
 width="706.000000pt" height="502.000000pt" viewBox="0 0 706.000000 502.000000"
 preserveAspectRatio="xMidYMid meet">

<g transform="translate(0.000000,502.000000) scale(0.100000,-0.100000)"
fill="#000000" stroke="none">
<path d="M0 2510 l0 -2510 3530 0 3530 0 0 2510 0 2510 -3530 0 -3530 0 0
-2510z m4208 2044 l22 -15 0 -380 c0 -243 -4 -387 -10 -400 -10 -18 -28 -19
-649 -19 -515 0 -641 3 -649 13 -9 10 -17 536 -12 769 0 9 7 24 16 32 14 14
85 16 637 16 547 0 625 -2 645 -16z m-764 -889 c4 -12 27 -15 121 -15 94 0
117 3 121 15 5 13 57 15 380 15 371 0 374 0 374 -21 0 -11 -5 -29 -10 -40 -10
-19 -31 -19 -858 -19 -646 0 -851 3 -860 12 -7 7 -12 25 -12 40 l0 28 369 0
c319 0 370 -2 375 -15z m2296 -2062 l0 -1138 -230 3 -230 3 -2 1127 c-2 620
-2 1130 0 1135 2 4 106 7 233 7 l229 0 0 -1137z m-3545 597 c437 -291 797
-530 800 -530 3 0 364 238 801 530 438 292 798 530 800 530 2 0 4 -508 4
-1130 l0 -1130 -235 0 -235 0 -2 691 -3 691 -560 -373 c-308 -206 -562 -375
-566 -377 -3 -1 -260 166 -570 373 l-564 376 -3 -691 -2 -690 -235 0 -235 0 0
1130 c0 622 2 1130 5 1130 3 0 363 -238 800 -530z"/>
<path d="M2972 4153 l3 -348 590 0 590 0 3 348 2 347 -595 0 -595 0 2 -347z"/>
</g>
</svg>
